<svg id="レイヤー_1" data-name="レイヤー 1" xmlns="http://www.w3.org/2000/svg" viewBox="0 0 320 50"><defs><style>.cls-1{fill:#fafafa;}</style></defs><path class="cls-1" d="M12,12.68q-6,0-6,11.18t6,11.19a8,8,0,0,0,4.18-1.23v1.74a8.89,8.89,0,0,1-4.25,1,7.31,7.31,0,0,1-3-.59,6.59,6.59,0,0,1-2.4-2,10,10,0,0,1-1.66-4,28.38,28.38,0,0,1-.58-6.21q0-6.55,1.92-9.65A6.3,6.3,0,0,1,12,11.11,8.45,8.45,0,0,1,16,12.17v1.66A7.83,7.83,0,0,0,12,12.68Z"/><path class="cls-1" d="M22.44,14.09a5.48,5.48,0,0,1,5.15-3,5.47,5.47,0,0,1,5.15,3q1.65,3,1.65,9.77c0,4.54-.55,7.79-1.65,9.78a5.48,5.48,0,0,1-5.15,3,5.49,5.49,0,0,1-5.15-3c-1.1-2-1.65-5.24-1.65-9.78S21.34,16.07,22.44,14.09Zm3.18,20.52a4.63,4.63,0,0,0,3.94,0,4.5,4.5,0,0,0,1.6-1.6,9.36,9.36,0,0,0,1.14-3.45,34.85,34.85,0,0,0,.39-5.7,34.81,34.81,0,0,0-.39-5.69,9.36,9.36,0,0,0-1.14-3.45,4.42,4.42,0,0,0-1.6-1.6,4.63,4.63,0,0,0-3.94,0,4.42,4.42,0,0,0-1.6,1.6,9.36,9.36,0,0,0-1.14,3.45,34.81,34.81,0,0,0-.39,5.69,34.85,34.85,0,0,0,.39,5.7A9.36,9.36,0,0,0,24,33,4.5,4.5,0,0,0,25.62,34.61Z"/><path class="cls-1" d="M37.45,11.45h1.8l5.34,23.29h.07L50,11.45h1.73l-6,24.82H43.47Z"/><path class="cls-1" d="M56.49,11.45h10.2V13H62.47V34.74h4.22v1.53H56.49V34.74h4.22V13H56.49Z"/><path class="cls-1" d="M85.56,23.69q0,6.94-2.06,9.93c-1.37,2-3.54,3-6.51,3a21.05,21.05,0,0,1-4.35-.47V11.59A19.2,19.2,0,0,1,77,11.11q4.49,0,6.53,2.91T85.56,23.69Zm-1.73,0q0-6-1.62-8.5A5.75,5.75,0,0,0,77,12.68a11.76,11.76,0,0,0-2.61.27V34.78a11.76,11.76,0,0,0,2.61.27,5.74,5.74,0,0,0,5.24-2.53C83.29,30.83,83.83,27.89,83.83,23.69Z"/><path class="cls-1" d="M90.83,27.16V25.6h9.52v1.56Z"/><path class="cls-1" d="M110.48,36.27v-23l0,0-6.16,3.51V15l6.19-3.57h1.77V36.27Z"/><path class="cls-1" d="M125.51,35a5.15,5.15,0,0,0,2.19-.42,4.21,4.21,0,0,0,1.64-1.51,8.71,8.71,0,0,0,1.12-3.1,33.15,33.15,0,0,0,.49-5.06h-.07a5.07,5.07,0,0,1-4.62,2.92q-5.61,0-5.61-8.5,0-8.22,5.95-8.23a5,5,0,0,1,4.72,2.4q1.4,2.4,1.4,8.82a35.67,35.67,0,0,1-.83,8.6,8.49,8.49,0,0,1-2.33,4.44,5.91,5.91,0,0,1-3.91,1.24,9.48,9.48,0,0,1-3.81-.78V34.1A8,8,0,0,0,125.51,35Zm1.09-22.33a3.74,3.74,0,0,0-3.1,1.41c-.74.94-1.12,2.69-1.12,5.25q0,7,4.05,7a3.9,3.9,0,0,0,3.38-1.9,8.63,8.63,0,0,0,1.07-5.37,10.16,10.16,0,0,0-1.2-5A3.51,3.51,0,0,0,126.6,12.68Z"/><path class="cls-1" d="M153.73,11.45h10.2V13h-4.22V34.74h4.22v1.53h-10.2V34.74H158V13h-4.22Z"/><path class="cls-1" d="M171.75,21.65h.07a5.55,5.55,0,0,1,2-2.5,5.24,5.24,0,0,1,3-.9,4.43,4.43,0,0,1,3.86,1.6c.76,1.07,1.14,2.91,1.14,5.54V36.27h-1.63V25.7c0-2.38-.27-4-.82-4.74a3.26,3.26,0,0,0-2.89-1.18,3.92,3.92,0,0,0-3.38,2,9.37,9.37,0,0,0-1.31,5.32v9.21h-1.7V18.59h1.6Z"/><path class="cls-1" d="M187.05,19.27h4.42V16.72a7.11,7.11,0,0,1,1-4.32,4,4,0,0,1,3.33-1.29,9.24,9.24,0,0,1,2.79.45v1.59a6.9,6.9,0,0,0-2.55-.51,2.66,2.66,0,0,0-2.26.85,6.7,6.7,0,0,0-.63,3.57v2.21h5.44V20.8h-5.44V36.27h-1.7V20.8h-4.42Z"/><path class="cls-1" d="M205,20.48a6.41,6.41,0,0,1,9.72,0q1.6,2.22,1.6,7t-1.6,7a6.43,6.43,0,0,1-9.72,0q-1.6-2.23-1.6-7T205,20.48Zm1.27,12.82a4.51,4.51,0,0,0,7.18,0q1.14-1.78,1.14-5.87t-1.14-5.86a4.5,4.5,0,0,0-7.18,0c-.76,1.19-1.13,3.14-1.13,5.86S205.48,32.11,206.24,33.3Z"/><path class="cls-1" d="M238.9,11.45h7.82V29.81q0,3.61-1.46,5.2t-4.66,1.6a12.54,12.54,0,0,1-5.1-1.09V33.65a10.45,10.45,0,0,0,2.52,1,10,10,0,0,0,2.58.43,4,4,0,0,0,3.25-1.28,6.16,6.16,0,0,0,1.07-4V13h-6Z"/><path class="cls-1" d="M258.93,18.25c2,0,3.47.44,4.3,1.31s1.24,2.42,1.24,4.64V36.27h-1.56l0-3.09h-.07a5.55,5.55,0,0,1-5.37,3.43,4.67,4.67,0,0,1-3.54-1.39,5.28,5.28,0,0,1-1.32-3.78,5.84,5.84,0,0,1,2-4.59q2-1.73,6.43-1.73h1.83V23.86a4.65,4.65,0,0,0-.86-3.19,4,4,0,0,0-3-.92,13,13,0,0,0-2.76.37,13.93,13.93,0,0,0-2.82.92v-1.6A14.87,14.87,0,0,1,258.93,18.25Zm3.87,8.23H261A9.18,9.18,0,0,0,256,27.65a4,4,0,0,0-1.87,3.69,3.9,3.9,0,0,0,.93,2.77,3.35,3.35,0,0,0,2.57,1,4.56,4.56,0,0,0,3.69-1.77,7.28,7.28,0,0,0,1.44-4.73Z"/><path class="cls-1" d="M282.25,27.43q0,4.86-1.65,7a5.07,5.07,0,0,1-4.2,2.16,4.91,4.91,0,0,1-4.79-3.43h-.07V43.75h-1.7V18.59h1.6l0,3.1h.07q1.66-3.44,4.86-3.44Q282.25,18.25,282.25,27.43Zm-6.19-7.55a3.79,3.79,0,0,0-3.28,1.86,9.21,9.21,0,0,0-1.24,5.18v1a9.36,9.36,0,0,0,1.22,5.2,3.78,3.78,0,0,0,3.3,1.84,3.7,3.7,0,0,0,3.32-1.89,10.89,10.89,0,0,0,1.17-5.66Q280.55,19.88,276.06,19.88Z"/><path class="cls-1" d="M292.93,18.25c2,0,3.47.44,4.3,1.31s1.24,2.42,1.24,4.64V36.27h-1.56l0-3.09h-.07a5.55,5.55,0,0,1-5.37,3.43,4.67,4.67,0,0,1-3.54-1.39,5.28,5.28,0,0,1-1.32-3.78,5.84,5.84,0,0,1,2-4.59q2-1.73,6.43-1.73h1.83V23.86a4.65,4.65,0,0,0-.86-3.19,4,4,0,0,0-3-.92,13,13,0,0,0-2.76.37,13.93,13.93,0,0,0-2.82.92v-1.6A14.87,14.87,0,0,1,292.93,18.25Zm3.87,8.23H295A9.18,9.18,0,0,0,290,27.65a4,4,0,0,0-1.87,3.69,3.9,3.9,0,0,0,.93,2.77,3.35,3.35,0,0,0,2.57,1,4.56,4.56,0,0,0,3.69-1.77,7.28,7.28,0,0,0,1.44-4.73Z"/><path class="cls-1" d="M305.71,21.65h.07a5.55,5.55,0,0,1,2-2.5,5.24,5.24,0,0,1,3-.9,4.43,4.43,0,0,1,3.86,1.6c.76,1.07,1.14,2.91,1.14,5.54V36.27h-1.63V25.7c0-2.38-.27-4-.82-4.74a3.26,3.26,0,0,0-2.89-1.18,3.92,3.92,0,0,0-3.38,2,9.37,9.37,0,0,0-1.31,5.32v9.21h-1.7V18.59h1.6Z"/></svg>